<svg width="69" height="69" viewBox="0 0 69 69" fill="none" xmlns="http://www.w3.org/2000/svg">
<g filter="url(#filter0_d_352_1072)">
<rect x="12.7891" y="12.4209" width="43.6145" height="43.4883" rx="5.27131" fill="#EBEDEF"/>
<rect x="12.1301" y="11.762" width="44.9323" height="44.8061" rx="5.93022" stroke="white" stroke-width="1.31783"/>
</g>
<g clip-path="url(#clip0_352_1072)">
<path d="M34.7288 45.103L32.3498 41.0507H33.5393V38.3492H35.9183V41.0507H37.1078L34.7288 45.103ZM43.0552 24.8414V35.6476H26.4024V24.8414H43.0552ZM44.2447 23.4907H25.2129V36.9984H44.2447V23.4907Z" fill="#FDB541"/>
<path d="M34.7287 26.1922C35.6751 26.1922 36.5828 26.6191 37.252 27.3791C37.9212 28.139 38.2972 29.1697 38.2972 30.2445C38.2972 31.3192 37.9212 32.35 37.252 33.1099C36.5828 33.8699 35.6751 34.2968 34.7287 34.2968H40.6761V32.946H41.8656V27.5429H40.6761V26.1922H34.7287ZM31.1603 30.2445C31.1603 29.1697 31.5362 28.139 32.2054 27.3791C32.8746 26.6191 33.7823 26.1922 34.7287 26.1922H28.7813V27.5429H27.5918V32.946H28.7813V34.2968H34.7287C33.7823 34.2968 32.8746 33.8699 32.2054 33.1099C31.5362 32.35 31.1603 31.3192 31.1603 30.2445Z" fill="#FDB541"/>
</g>
<defs>
<filter id="filter0_d_352_1072" x="0.928087" y="0.824007" width="67.3352" height="67.2092" filterUnits="userSpaceOnUse" color-interpolation-filters="sRGB">
<feFlood flood-opacity="0" result="BackgroundImageFix"/>
<feColorMatrix in="SourceAlpha" type="matrix" values="0 0 0 0 0 0 0 0 0 0 0 0 0 0 0 0 0 0 127 0" result="hardAlpha"/>
<feMorphology radius="0.263565" operator="dilate" in="SourceAlpha" result="effect1_dropShadow_352_1072"/>
<feOffset dy="0.263565"/>
<feGaussianBlur stdDeviation="5.13953"/>
<feComposite in2="hardAlpha" operator="out"/>
<feColorMatrix type="matrix" values="0 0 0 0 0.921569 0 0 0 0 0.929412 0 0 0 0 0.937255 0 0 0 0.329 0"/>
<feBlend mode="normal" in2="BackgroundImageFix" result="effect1_dropShadow_352_1072"/>
<feBlend mode="normal" in="SourceGraphic" in2="effect1_dropShadow_352_1072" result="shape"/>
</filter>
<clipPath id="clip0_352_1072">
<rect width="19.0318" height="21.6124" fill="white" transform="translate(25.2129 23.4906)"/>
</clipPath>
</defs>
</svg>
