<svg width="68" height="69" viewBox="0 0 68 69" fill="none" xmlns="http://www.w3.org/2000/svg">
<g filter="url(#filter0_d_352_1063)">
<rect x="12.1016" y="12.4209" width="43.6145" height="43.4883" rx="5.27131" fill="#EBEDEF"/>
<rect x="11.4426" y="11.762" width="44.9323" height="44.8061" rx="5.93022" stroke="white" stroke-width="1.31783"/>
</g>
<path d="M30.1011 35.3044C30.1011 33.142 31.1632 31.2291 32.7997 29.9919H25.105L26.7306 25.3136H38.6519L39.9741 29.1186C40.8845 29.5033 41.6864 30.0647 42.3475 30.7612L40.1909 24.7938C39.9741 24.1909 39.3672 23.7542 38.6519 23.7542H26.7306C26.0154 23.7542 25.4085 24.1909 25.1917 24.7938L22.9375 31.0315V39.3485C22.9375 39.9203 23.4252 40.3881 24.0213 40.3881H25.105C25.7011 40.3881 26.1888 39.9203 26.1888 39.3485V38.3089H30.8381C30.3721 37.4044 30.1011 36.3856 30.1011 35.3044ZM26.7306 35.19C25.8311 35.19 25.105 34.4935 25.105 33.6306C25.105 32.7677 25.8311 32.0712 26.7306 32.0712C27.6302 32.0712 28.3563 32.7677 28.3563 33.6306C28.3563 34.4935 27.6302 35.19 26.7306 35.19ZM37.1455 30.6261C39.8549 30.6261 42.0224 32.7053 42.0224 35.3044C42.0224 36.2296 41.7515 37.0821 41.2746 37.7891L44.6126 41.0223L43.1062 42.4674L39.7357 39.2757C38.9771 39.7228 38.1101 39.9827 37.1455 39.9827C34.4361 39.9827 32.2686 37.9034 32.2686 35.3044C32.2686 32.7053 34.4361 30.6261 37.1455 30.6261ZM37.1455 32.7053C36.6096 32.7053 36.0858 32.8578 35.6403 33.1434C35.1947 33.4289 34.8474 33.8349 34.6424 34.3098C34.4373 34.7847 34.3836 35.3073 34.4882 35.8114C34.5927 36.3156 34.8508 36.7787 35.2297 37.1422C35.6086 37.5057 36.0914 37.7532 36.6169 37.8535C37.1425 37.9538 37.6873 37.9023 38.1824 37.7056C38.6774 37.5089 39.1006 37.1757 39.3983 36.7483C39.696 36.3209 39.8549 35.8184 39.8549 35.3044C39.8549 33.8593 38.6519 32.7053 37.1455 32.7053Z" fill="#FDB541"/>
<defs>
<filter id="filter0_d_352_1063" x="0.240587" y="0.824007" width="67.3352" height="67.2092" filterUnits="userSpaceOnUse" color-interpolation-filters="sRGB">
<feFlood flood-opacity="0" result="BackgroundImageFix"/>
<feColorMatrix in="SourceAlpha" type="matrix" values="0 0 0 0 0 0 0 0 0 0 0 0 0 0 0 0 0 0 127 0" result="hardAlpha"/>
<feMorphology radius="0.263565" operator="dilate" in="SourceAlpha" result="effect1_dropShadow_352_1063"/>
<feOffset dy="0.263565"/>
<feGaussianBlur stdDeviation="5.13953"/>
<feComposite in2="hardAlpha" operator="out"/>
<feColorMatrix type="matrix" values="0 0 0 0 0.921569 0 0 0 0 0.929412 0 0 0 0 0.937255 0 0 0 0.329 0"/>
<feBlend mode="normal" in2="BackgroundImageFix" result="effect1_dropShadow_352_1063"/>
<feBlend mode="normal" in="SourceGraphic" in2="effect1_dropShadow_352_1063" result="shape"/>
</filter>
</defs>
</svg>
