<svg width="7" height="8" viewBox="0 0 7 8" fill="none" xmlns="http://www.w3.org/2000/svg">
<path d="M3.90016 4.48008C4.10009 4.48008 4.27129 4.40883 4.41378 4.26634C4.55603 4.12409 4.62716 3.95301 4.62716 3.75308C4.62716 3.55316 4.55603 3.38195 4.41378 3.23946C4.27129 3.09721 4.10009 3.02609 3.90016 3.02609C3.70024 3.02609 3.52915 3.09721 3.38691 3.23946C3.24441 3.38195 3.17317 3.55316 3.17317 3.75308C3.17317 3.95301 3.24441 4.12409 3.38691 4.26634C3.52915 4.40883 3.70024 4.48008 3.90016 4.48008ZM3.90016 7.97874C3.8517 7.97874 3.80323 7.96965 3.75476 7.95147C3.7063 7.9333 3.66389 7.90907 3.62754 7.87877C2.74303 7.09726 2.08268 6.37184 1.64648 5.70252C1.21029 5.03296 0.992188 4.40738 0.992188 3.82578C0.992188 2.91704 1.28456 2.19308 1.86931 1.65389C2.45381 1.1147 3.13076 0.845108 3.90016 0.845108C4.66957 0.845108 5.34652 1.1147 5.93102 1.65389C6.51577 2.19308 6.80814 2.91704 6.80814 3.82578C6.80814 4.40738 6.59004 5.03296 6.15384 5.70252C5.71765 6.37184 5.0573 7.09726 4.17279 7.87877C4.13644 7.90907 4.09403 7.9333 4.04556 7.95147C3.9971 7.96965 3.94863 7.97874 3.90016 7.97874Z" fill="#1A202C"/>
</svg>
