<svg width="9" height="14" viewBox="0 0 9 14" fill="none" xmlns="http://www.w3.org/2000/svg">
<path d="M2.13249 4.20383C1.63996 4.20383 1.22131 4.03144 0.876534 3.68667C0.531761 3.3419 0.359375 2.92324 0.359375 2.43071C0.359375 1.93818 0.531761 1.51953 0.876534 1.17475C1.22131 0.829979 1.63996 0.657593 2.13249 0.657593C2.50682 0.657593 2.84667 0.768511 3.15204 0.990348C3.45741 1.21218 3.67905 1.49529 3.81696 1.83967H8.63393V3.02175H8.04289V4.20383H6.86081V3.02175H3.81696C3.67905 3.36652 3.45741 3.64983 3.15204 3.87167C2.84667 4.0935 2.50682 4.20422 2.13249 4.20383ZM2.13249 3.02175C2.29995 3.02175 2.44042 2.96501 2.5539 2.85153C2.66738 2.73805 2.72393 2.59778 2.72353 2.43071C2.72353 2.26325 2.66679 2.12278 2.55331 2.0093C2.43983 1.89582 2.29956 1.83928 2.13249 1.83967C1.96503 1.83967 1.82456 1.89641 1.71108 2.00989C1.5976 2.12337 1.54106 2.26364 1.54145 2.43071C1.54145 2.59817 1.59819 2.73864 1.71167 2.85212C1.82515 2.9656 1.96543 3.02214 2.13249 3.02175ZM2.72353 10.4097C2.89099 10.4097 3.03146 10.353 3.14494 10.2395C3.25842 10.126 3.31497 9.98577 3.31457 9.8187C3.31457 9.65124 3.25783 9.51077 3.14435 9.39729C3.03087 9.28381 2.8906 9.22727 2.72353 9.22766C2.55607 9.22766 2.4156 9.2844 2.30212 9.39788C2.18864 9.51136 2.1321 9.65164 2.13249 9.8187C2.13249 9.98616 2.18923 10.1266 2.30271 10.2401C2.41619 10.3536 2.55647 10.4101 2.72353 10.4097ZM6.26977 10.4097C6.43723 10.4097 6.5777 10.353 6.69118 10.2395C6.80466 10.126 6.8612 9.98577 6.86081 9.8187C6.86081 9.65124 6.80407 9.51077 6.69059 9.39729C6.57711 9.28381 6.43684 9.22727 6.26977 9.22766C6.10231 9.22766 5.96184 9.2844 5.84836 9.39788C5.73488 9.51136 5.67834 9.65164 5.67873 9.8187C5.67873 9.98616 5.73547 10.1266 5.84895 10.2401C5.96243 10.3536 6.1027 10.4101 6.26977 10.4097ZM0.359375 8.69573L1.33459 5.85874C1.38384 5.72083 1.46521 5.60755 1.57869 5.51889C1.69217 5.43024 1.81767 5.38591 1.95518 5.38591H7.03812C7.17603 5.38591 7.30172 5.43024 7.4152 5.51889C7.52868 5.60755 7.60985 5.72083 7.65871 5.85874L8.63393 8.69573V12.5966C8.63393 12.7345 8.5896 12.8478 8.50094 12.9364C8.41229 13.0251 8.299 13.0694 8.1611 13.0694H7.92468C7.78677 13.0694 7.67349 13.0251 7.58483 12.9364C7.49618 12.8478 7.45185 12.7345 7.45185 12.5966V11.8873H1.54145V12.5966C1.54145 12.7345 1.49713 12.8478 1.40847 12.9364C1.31981 13.0251 1.20653 13.0694 1.06862 13.0694H0.832207C0.694297 13.0694 0.581015 13.0251 0.492359 12.9364C0.403703 12.8478 0.359375 12.7345 0.359375 12.5966V8.69573ZM1.92563 7.75006H7.06767L6.65394 6.56799H2.33936L1.92563 7.75006ZM1.54145 10.7053H7.45185V8.93214H1.54145V10.7053Z" fill="#ff8000"/>
</svg>
