<svg width="12" height="13" viewBox="0 0 12 13" fill="none" xmlns="http://www.w3.org/2000/svg">
<g clip-path="url(#clip0_389_1517)">
<path d="M1.67659 6.86833L5.4382 11.4078C5.76734 11.786 6.15134 11.9752 6.5902 11.9752C6.98203 11.9752 7.31901 11.857 7.60113 11.6205L10.869 8.85432C11.1825 8.57061 11.3628 8.21597 11.4098 7.7904C11.4568 7.39635 11.3392 7.01018 11.0571 6.6319L7.2955 2.09248C6.88799 1.55657 6.3551 1.21769 5.69682 1.07583L2.42891 0.319263C2.11544 0.224692 1.81765 0.29562 1.53553 0.532048L1.13585 0.886691C0.900754 1.06007 0.783203 1.34379 0.783203 1.73783L0.971284 5.11876C1.04965 5.79652 1.28475 6.37971 1.67659 6.86833ZM2.24083 1.28862L5.55575 2.09248C5.90057 2.17128 6.24538 2.38407 6.5902 2.73083L10.3518 7.27025C10.4772 7.39635 10.5164 7.53821 10.4694 7.69583C10.4694 7.7904 10.3988 7.92437 10.2578 8.09775L6.98987 10.864C6.88016 10.9585 6.74693 11.0019 6.5902 10.994C6.43347 10.9861 6.31591 10.927 6.23755 10.8167L2.47593 6.27726C2.17814 5.89897 2.02924 5.5128 2.02924 5.11876L1.79414 1.64326L2.24083 1.28862ZM3.58091 2.94362C3.58091 3.08547 3.53389 3.20369 3.43984 3.29826C3.3458 3.39283 3.22825 3.44012 3.08719 3.44012C2.94613 3.44012 2.82858 3.39283 2.73454 3.29826C2.6405 3.20369 2.59348 3.08547 2.59348 2.94362C2.59348 2.80176 2.6405 2.68355 2.73454 2.58897C2.82858 2.4944 2.94613 2.44712 3.08719 2.44712C3.22825 2.44712 3.3458 2.4944 3.43984 2.58897C3.53389 2.68355 3.58091 2.80176 3.58091 2.94362ZM3.83952 6.4664L8.4475 7.93225H8.61207C8.8315 7.93225 8.99607 7.81404 9.10578 7.57761C9.1528 7.45152 9.14496 7.32542 9.08227 7.19933C9.01958 7.07323 8.92554 6.98654 8.80015 6.93926L4.19217 5.4734C4.06678 5.41035 3.93748 5.41035 3.80425 5.4734C3.67103 5.53645 3.58091 5.63102 3.53389 5.75711C3.43984 6.11964 3.54172 6.35607 3.83952 6.4664ZM7.60113 8.73611C7.60113 8.94101 7.5306 9.11834 7.38954 9.26807C7.24848 9.41781 7.06824 9.49268 6.84881 9.49268C6.62938 9.49268 6.44914 9.41781 6.30808 9.26807C6.16702 9.11834 6.09649 8.94101 6.09649 8.73611C6.09649 8.53121 6.17094 8.35388 6.31983 8.20415C6.46873 8.05441 6.64506 7.97954 6.84881 7.97954C7.05256 7.97954 7.22889 8.05441 7.37779 8.20415C7.52668 8.35388 7.60113 8.53121 7.60113 8.73611ZM6.09649 4.71683C6.09649 4.92173 6.02204 5.09905 5.87314 5.24879C5.72424 5.39853 5.54792 5.4734 5.34416 5.4734C5.14041 5.4734 4.96408 5.39853 4.81519 5.24879C4.66629 5.09905 4.59184 4.92173 4.59184 4.71683C4.59184 4.51192 4.66237 4.3346 4.80343 4.18487C4.94449 4.03513 5.12474 3.96026 5.34416 3.96026C5.56359 3.96026 5.74383 4.03513 5.8849 4.18487C6.02596 4.3346 6.09649 4.51192 6.09649 4.71683Z" fill="#FDB541"/>
</g>
<defs>
<clipPath id="clip0_389_1517">
<rect width="10.9087" height="11.7268" fill="white" transform="translate(0.642578 0.295624)"/>
</clipPath>
</defs>
</svg>
